<?xml version="1.0" encoding="utf-8"?>
<!-- Generator: Adobe Illustrator 26.1.0, SVG Export Plug-In . SVG Version: 6.00 Build 0)  -->
<svg version="1.1" id="Layer_1" xmlns="http://www.w3.org/2000/svg" xmlns:xlink="http://www.w3.org/1999/xlink" x="0px" y="0px"
	 viewBox="0 0 512 512" style="enable-background:new 0 0 512 512;" xml:space="preserve">
<style type="text/css">
	.st0{fill:url(#SVGID_1_);}
	.st1{fill:url(#SVGID_00000010275221762629303770000013892554351799931558_);}
	.st2{fill:url(#SVGID_00000159446130828597270510000000364341755462325912_);}
	.st3{fill:url(#SVGID_00000078728721964714330500000015605726087881236153_);}
</style>
<g>
	<linearGradient id="SVGID_1_" gradientUnits="userSpaceOnUse" x1="59.6703" y1="346.0136" x2="210.6906" y2="346.0136">
		<stop  offset="1.844618e-03" style="stop-color:#FD004C"/>
		<stop  offset="0.9982" style="stop-color:#FD5A4C"/>
	</linearGradient>
	<path class="st0" d="M195.7,331h-121c-8.3,0-15,6.7-15,15c0,8.3,6.7,15,15,15h121c8.3,0,15-6.7,15-15
		C210.7,337.7,204,331,195.7,331z"/>
	
		<linearGradient id="SVGID_00000129192826049156677200000002192778372237506484_" gradientUnits="userSpaceOnUse" x1="-0.3378" y1="286.0055" x2="150.6826" y2="286.0055">
		<stop  offset="1.844618e-03" style="stop-color:#FD004C"/>
		<stop  offset="0.9982" style="stop-color:#FD5A4C"/>
	</linearGradient>
	<path style="fill:url(#SVGID_00000129192826049156677200000002192778372237506484_);" d="M150.7,286c0-8.3-6.7-15-15-15h-121
		c-8.3,0-15,6.7-15,15c0,8.3,6.7,15,15,15h121C144,301,150.7,294.3,150.7,286z"/>
	
		<linearGradient id="SVGID_00000085959336338279098670000012855946584585013659_" gradientUnits="userSpaceOnUse" x1="59.6703" y1="225.9974" x2="210.6906" y2="225.9974">
		<stop  offset="1.844618e-03" style="stop-color:#FD004C"/>
		<stop  offset="0.9982" style="stop-color:#FD5A4C"/>
	</linearGradient>
	<path style="fill:url(#SVGID_00000085959336338279098670000012855946584585013659_);" d="M195.7,211h-121c-8.3,0-15,6.7-15,15
		c0,8.3,6.7,15,15,15h121c8.3,0,15-6.7,15-15C210.7,217.7,204,211,195.7,211z"/>
	
		<linearGradient id="SVGID_00000091696493170974013490000016260385626819003266_" gradientUnits="userSpaceOnUse" x1="231.9758" y1="256" x2="511.6614" y2="256">
		<stop  offset="1.844618e-03" style="stop-color:#FD004C"/>
		<stop  offset="0.9982" style="stop-color:#FD5A4C"/>
	</linearGradient>
	<path style="fill:url(#SVGID_00000091696493170974013490000016260385626819003266_);" d="M508.9,283.1
		c-6.2-30.9-22.4-60.1-46.3-83.6l8.1-10.2c5.2-6.5,4.1-15.9-2.3-21.1c-6.5-5.2-15.9-4.1-21.1,2.3l-7.8,9.7
		c-23.6-16.5-50.2-26.4-76.9-28.8l-6.1-30.6h11.7c8.3,0,15-6.7,15-15s-6.7-15-15-15h-60c-8.3,0-15,6.7-15,15s6.7,15,15,15h17.7
		l6.2,31.2c-23.7,3.3-44.6,13-61.1,28.3l-14.5-12.1c-6.4-5.3-15.8-4.4-21.1,1.9c-5.3,6.4-4.4,15.8,1.9,21.1l14.9,12.4
		c-14.5,24.3-19,53.9-12.8,85c7.1,35.4,27.4,68.6,57.2,93.4c29.9,24.9,65.9,38.6,101.5,38.6c36.2,0,67.7-14.1,88.8-39.8
		C508.5,354.9,516.3,320.1,508.9,283.1L508.9,283.1z M419.9,252.9l-33.9,42.4c-3,3.7-7.3,5.6-11.7,5.6c-3.3,0-6.6-1.1-9.4-3.3
		c-6.5-5.2-7.5-14.6-2.3-21.1l33.9-42.4c5.2-6.5,14.6-7.5,21.1-2.3C424,237,425,246.5,419.9,252.9L419.9,252.9z"/>
</g>
</svg>
