<?xml version="1.0" encoding="utf-8"?>
<!-- Generator: Adobe Illustrator 26.1.0, SVG Export Plug-In . SVG Version: 6.00 Build 0)  -->
<svg version="1.1" id="Layer_1" xmlns="http://www.w3.org/2000/svg" xmlns:xlink="http://www.w3.org/1999/xlink" x="0px" y="0px"
	 viewBox="0 0 512 512" style="enable-background:new 0 0 512 512;" xml:space="preserve">
<style type="text/css">
	.st0{fill-rule:evenodd;clip-rule:evenodd;fill:url(#SVGID_1_);}
</style>
<linearGradient id="SVGID_1_" gradientUnits="userSpaceOnUse" x1="64.7031" y1="366.4453" x2="447.2888" y2="145.5594">
	<stop  offset="0" style="stop-color:#03B196"/>
	<stop  offset="1" style="stop-color:#02DC9A"/>
</linearGradient>
<path class="st0" d="M475.4,234l-36.3-42.7c-4.6-5.4-7.4-12.1-8-19.2c-1-14.2-3.1-37-4.6-55.6c-1.3-16.7-14.6-29.9-31.3-31.1
	l-55.6-4.6c-7.1-0.6-13.8-3.4-19.2-8c-10.2-8.8-28.4-24-42.7-36.3c-12.7-10.9-31.4-10.9-44.1,0l-42.7,36.3c-5.4,4.6-12.1,7.4-19.2,8
	l-55.3,4.6c-16.7,1.2-30.1,14.5-31.3,31.3c-1.6,18.8-3.4,42.7-4.6,55.6c-0.6,7.1-3.4,13.8-8,19.2c-8.7,10.4-24,28.4-36.3,42.7
	c-10.9,12.7-10.9,31.4,0,44.1l36.3,42.7c4.6,5.4,7.4,12.1,8,19.2c1.1,14.2,3.1,37,4.6,55.6c1.4,16.6,14.6,29.8,31.3,31l55.6,4.6
	c7.1,0.6,13.8,3.4,19.2,8l42.7,36.3c12.7,10.9,31.4,10.9,44.1,0c14.2-12.2,32.3-27.4,42.7-36.3c5.4-4.6,12.1-7.4,19.2-8l55.3-4.6
	c16.7-1.2,30.1-14.5,31.3-31.3c1.6-18.8,3.6-42.7,4.6-55.6c0.6-7.1,3.4-13.8,8-19.2c8.8-10.2,24-28.4,36.3-42.7
	C486.3,265.2,486.3,246.6,475.4,234z M239.1,322.6l-63.1-63.1l24-24l39.1,39l73-73l24,24L239.1,322.6z"/>
</svg>
