<?xml version="1.0" encoding="UTF-8"?><svg xmlns="http://www.w3.org/2000/svg" xmlns:xlink="http://www.w3.org/1999/xlink" viewBox="0 0 503.74 512"><defs><style>.l{fill:url(#e);}.m{fill:url(#d);}.n{fill:url(#g);}.o{fill:url(#f);}.p{fill:url(#i);}.q{fill:url(#h);}.r{fill:url(#k);}.s{fill:url(#j);}</style><linearGradient id="d" x1="119.78" y1="164.54" x2="176.89" y2="197.52" gradientTransform="matrix(1, 0, 0, 1, 0, 0)" gradientUnits="userSpaceOnUse"><stop offset="0" stop-color="#fe6fda"/><stop offset="1" stop-color="#fe53a4"/></linearGradient><linearGradient id="e" x1="272.99" y1="326.85" x2="340.99" y2="366.12" xlink:href="#d"/><linearGradient id="f" x1="386.15" y1="-2.14" x2="521.04" y2="75.73" xlink:href="#d"/><linearGradient id="g" x1="319.47" y1="140.68" x2="373.11" y2="171.65" xlink:href="#d"/><linearGradient id="h" x1="213.34" y1="150.39" x2="420.73" y2="270.13" xlink:href="#d"/><linearGradient id="i" x1="48.19" y1="421.3" x2="99.89" y2="451.15" xlink:href="#d"/><linearGradient id="j" x1="119.51" y1="449.37" x2="155.34" y2="470.05" xlink:href="#d"/><linearGradient id="k" x1="29.72" y1="365.87" x2="65.55" y2="386.56" xlink:href="#d"/></defs><g id="a"/><g id="b"><g id="c"><g><path class="m" d="M78.85,236.6l72.32,5.46c7.6-18.77,15.92-37.38,24.77-55.41,9.65-19.75,21.07-43.12,34.15-65.66-77.4,33.62-117.15,84.74-131.24,115.6Z"/><path class="l" d="M260.08,349.21l5.56,71.96c30.65-13.8,81.7-52.95,116.64-129.78-10.18,5.74-21.48,11.67-34.33,18.03-6.09,3.27-11.67,6.11-16.83,8.57-8.71,4.17-17.54,8.22-27,12.35-14.44,6.66-29.26,13.01-44.05,18.87h0Z"/><path class="o" d="M503.47,.87c-33.38-2.01-79.03-1.3-124.97,10.25l114.52,113.14c5.6-22.12,8.65-44.28,10.1-65.04,.93-13.46,.64-53.28,.36-58.35Z"/><circle class="n" cx="346.29" cy="156.16" r="30.97"/><path class="q" d="M359.06,16.5c-33.73,10.92-66.37,28.44-92.68,55.98-31.38,33.2-55.39,82.33-74.67,121.81-18.64,37.99-34.28,77.06-46.5,116.22l45.18,44.65c39.68-12.09,79.26-27.54,117.72-45.97,42.38-20.03,90.38-42.71,123.26-73.74,27.58-25.96,45.14-58.43,56.1-92.06L359.06,16.5Zm-12.77,191.27c-28.51,0-51.61-23.11-51.61-51.61s23.11-51.61,51.61-51.61,51.61,23.11,51.61,51.61-23.11,51.61-51.61,51.61Z"/><path class="p" d="M13.98,506.78c-7.59,0-11.55-9.39-6.31-14.78l120.1-123.64c3.37-3.46,8.91-3.56,12.4-.21,3.48,3.34,3.58,8.87,.21,12.33L20.29,504.12c-1.72,1.77-4.01,2.66-6.31,2.66h0Z"/><path class="s" d="M98.49,512c-7.41,0-11.45-9.03-6.55-14.51l77.84-87.11c3.22-3.6,8.76-3.92,12.38-.73,3.62,3.2,3.95,8.71,.73,12.31l-77.84,87.11c-1.73,1.94-4.14,2.93-6.56,2.93Z"/><path class="r" d="M8.7,428.51c-7.41,0-11.45-9.03-6.55-14.51l77.84-87.11c3.22-3.6,8.76-3.92,12.38-.73,3.62,3.2,3.95,8.71,.73,12.31L15.26,425.58c-1.73,1.94-4.14,2.93-6.56,2.93Z"/></g></g></g></svg>